<svg width="960" height="960" viewBox="0 0 960 960" fill="none" xmlns="http://www.w3.org/2000/svg">
<rect width="960" height="960" fill="#1E1E1E"/>
<path d="M75 629.83C75 629.656 75 629.481 101.161 580.539C127.322 531.597 179.643 433.893 207.291 385.956C234.939 338.019 236.327 342.809 238.162 353.164C242.775 379.206 251.885 420.156 263.495 454.252C272.028 479.31 327.834 500.044 339.07 504.989C350.592 510.059 397.861 429.797 459.715 308.673C481.473 266.066 484.389 262.113 487.366 262.638C495.616 264.096 499.724 279.659 506.987 287.223C513.678 294.192 533.615 251.018 554.517 204.371C563.9 190.017 570.797 194.582 584.431 211.888C598.064 229.194 618.227 259.103 639 289.918" stroke="white" stroke-width="27" stroke-linecap="round"/>
<path d="M100 687.961L442 564" stroke="white" stroke-width="18" stroke-linecap="round"/>
<path d="M98 730.029L225.019 684" stroke="white" stroke-width="18" stroke-linecap="round"/>
<path d="M564.552 713.816C517.064 713.816 489.504 689.224 475.512 659.544L523.848 630.288C533.176 646.824 541.656 660.816 562.008 660.816C581.512 660.816 593.808 653.184 593.808 623.504V421.68H653.168V624.352C653.168 685.832 617.128 713.816 564.552 713.816ZM793.552 713.816C738.432 713.816 702.816 687.528 685.432 653.184L733.768 625.2C746.488 645.976 763.024 661.24 792.28 661.24C816.872 661.24 832.56 648.944 832.56 631.984C832.56 611.632 816.448 604.424 789.312 592.552L774.472 586.192C731.648 567.96 703.24 545.064 703.24 496.728C703.24 452.208 737.16 418.288 790.16 418.288C827.896 418.288 855.032 431.432 874.536 465.776L828.32 495.456C818.144 477.224 807.12 470.016 790.16 470.016C772.776 470.016 761.752 481.04 761.752 495.456C761.752 513.264 772.776 520.472 798.216 531.496L813.056 537.856C863.512 559.48 891.92 581.528 891.92 631.136C891.92 684.56 849.944 713.816 793.552 713.816Z" fill="white"/>
</svg>
